<?xml version="1.0" encoding="UTF-8"?>
<svg id="Calque_2" data-name="Calque 2" xmlns="http://www.w3.org/2000/svg" viewBox="0 0 855.27 897.53">
  <defs>
    <style>
      .cls-1 {
        fill: #bf1818;
      }

      .cls-1, .cls-2, .cls-3, .cls-4, .cls-5, .cls-6 {
        stroke: #1d1d1b;
        stroke-miterlimit: 10;
        stroke-width: 10px;
      }

      .cls-2 {
        fill: #71c6e4;
      }

      .cls-3 {
        fill: #9bc31c;
      }

      .cls-4 {
        fill: #942314;
      }

      .cls-5 {
        fill: #00b6df;
      }

      .cls-6 {
        fill: #fff;
      }
    </style>
  </defs>
  <g id="Calque_1-2" data-name="Calque 1">
    <circle class="cls-6" cx="337" cy="292.29" r="115.29"/>
    <path class="cls-5" d="m361.43,653.16s162.74,58.84,179.77,102.19-248.05-15.48-248.05-15.48l68.28-86.71Z"/>
    <path class="cls-5" d="m319.59,356.5s207.85,31.64,139.27,250.04c-68.58,218.4-282.76,177.25-293.31,190.97s-233.17-2.55-136.1-142.13c97.07-139.58,6.33-193.37,290.14-298.88Z"/>
    <path class="cls-2" d="m461.86,486.19c-20.08-41.45-79.31-97.2-100.43,148.39s141.05-64.52,100.43-148.39Z"/>
    <path class="cls-4" d="m457.58,211.87s-100.65,54.19-96,156.39,146.42-38.71,146.42-38.71c0,0,124.55-80.35,54.87-103.66s-105.29-14.02-105.29-14.02Z"/>
    <path class="cls-3" d="m635.65,386.84s24.77,78.97-10.84,68.13-277.16-1.03-250.84-43.87,261.68-24.26,261.68-24.26Z"/>
    <path class="cls-3" d="m325.45,373.14s142.45,24.77,145.55-103.74c3.1-128.52,185.81-128.52,165.68-61.94-20.13,66.58-82.06,202.84,120.77,113.03,202.84-89.81,9.29,188.9,13.94,113.03,4.65-75.87-445.94,43.87-445.94-8.26v-52.13Z"/>
    <path class="cls-5" d="m285.71,47.74c68.4-1.77,98.59,80.44,157.94,66.58,49.88-11.65,46.2-73.84,100.65-99.1,75.05-34.82,208.08,24.91,218.32,94.45,10.88,73.9-114.74,173.6-226.06,171.87-97.67-1.52-146.1-80.53-205.94-52.65-50.69,23.62-69.27,105.16-51.1,120.77,18.56,15.94,67.42-43.73,123.87-26.32,35.42,10.92,66.32,49.87,58.84,77.42-7.88,29.04-56.13,37.01-85.16,41.81-22.82,3.77-89.36,14.76-156.39-26.32-13.59-8.33-81.77-52.24-96-133.16-20.14-114.54,80.12-233.26,161.03-235.35Z"/>
    <path class="cls-5" d="m249.71,438.99s299.64-201.15,306.16-114.03-194.52,210.77-194.52,210.77"/>
    <path class="cls-1" d="m293.14,411.09s67.01,127.09,96.87,105.78,52.66-38.81,52.66-38.81l-89.32-103.02-60.21,36.04Z"/>
    <circle class="cls-6" cx="367.91" cy="455.99" r="21.29"/>
    <path class="cls-5" d="m101.45,739.87s18.58,92.9,77.42,137.81,70.84-26.32,70.84-26.32c0,0,3.49-126.97-30.58-125.42"/>
  </g>
</svg>